HIERARCHY
ROOT root
{
	OFFSET	0	13.1	24.9
	CHANNELS 6  Xposition Yposition Zposition Xrotation Yrotation Zrotation
	JOINT spine_1
	{
		OFFSET	0	9.99999	0
		CHANNELS 3  Xrotation Yrotation Zrotation
		JOINT spine_2
		{
			OFFSET	0	112	-10
			CHANNELS 3  Xrotation Yrotation Zrotation
			JOINT spine_3
			{
				OFFSET	0	206.5	19.3
				CHANNELS 3  Xrotation Yrotation Zrotation
				JOINT spine_4
				{
					OFFSET	0	110.4	14.6
					CHANNELS 3  Xrotation Yrotation Zrotation
					JOINT neck_1
					{
						OFFSET	0	71.8	-50.3
						CHANNELS 3  Xrotation Yrotation Zrotation
						JOINT neck_2
						{
							OFFSET	0	86.2	-25.8
							CHANNELS 3  Xrotation Yrotation Zrotation
							JOINT head_ee
							{
								OFFSET	0	179.8	-8.7
								CHANNELS 3  Xrotation Yrotation Zrotation
								End Site
								{
									OFFSET	1	0	0
								}
							}
						}
					}
					JOINT left_clavicle
					{
						OFFSET	-43.2	22.4	-70.8
						CHANNELS 3  Xrotation Yrotation Zrotation
						JOINT left_shoulder
						{
							OFFSET	-93.9	-5.79999	48.7
							CHANNELS 3  Xrotation Yrotation Zrotation
							JOINT left_elbow
							{
								OFFSET	-291.4	-30.8	15.2
								CHANNELS 3  Xrotation Yrotation Zrotation
								JOINT left_lowarm_twist
								{
									OFFSET	-110.7	-3.89999	13.6
									CHANNELS 3  Xrotation Yrotation Zrotation
									JOINT left_hand
									{
										OFFSET	-110.7	-3.89999	13.6
										CHANNELS 3  Xrotation Yrotation Zrotation
										JOINT left_ee
										{
											OFFSET	-80.8	-5.10001	12.1
											CHANNELS 3  Xrotation Yrotation Zrotation
											End Site
											{
												OFFSET	1	0	0
											}
										}
									}
								}
							}
						}
					}
					JOINT right_clavicle
					{
						OFFSET	43.2	22.4	-70.8
						CHANNELS 3  Xrotation Yrotation Zrotation
						JOINT right_shoulder
						{
							OFFSET	93.9	-5.79999	48.7
							CHANNELS 3  Xrotation Yrotation Zrotation
							JOINT right_elbow
							{
								OFFSET	291.4	-30.8	15.2
								CHANNELS 3  Xrotation Yrotation Zrotation
								JOINT right_lowarm_twist
								{
									OFFSET	110.7	-3.89999	13.6
									CHANNELS 3  Xrotation Yrotation Zrotation
									JOINT right_hand
									{
										OFFSET	110.7	-3.89999	13.6
										CHANNELS 3  Xrotation Yrotation Zrotation
										JOINT right_ee
										{
											OFFSET	80.8	-5.10001	12.1
											CHANNELS 3  Xrotation Yrotation Zrotation
											End Site
											{
												OFFSET	1	0	0
											}
										}
									}
								}
							}
						}
					}
				}
			}
		}
	}
	JOINT left_hip
	{
		OFFSET	-82.8	-127.5	0.300001
		CHANNELS 3  Xrotation Yrotation Zrotation
		JOINT left_knee
		{
			OFFSET	-28.2	-396.7	2.2
			CHANNELS 3  Xrotation Yrotation Zrotation
			JOINT left_ankle
			{
				OFFSET	-11.7	-411.3	35.4
				CHANNELS 3  Xrotation Yrotation Zrotation
				JOINT left_toes
				{
					OFFSET	0	-60	-88.6
					CHANNELS 3  Xrotation Yrotation Zrotation
					JOINT left_foot_ee
					{
						OFFSET	-22.5	-16.5	-42.2
						CHANNELS 3  Xrotation Yrotation Zrotation
						End Site
						{
							OFFSET	1	0	0
						}
					}
				}
			}
		}
	}
	JOINT right_hip
	{
		OFFSET	82.8	-127.5	0.300001
		CHANNELS 3  Xrotation Yrotation Zrotation
		JOINT right_knee
		{
			OFFSET	28.2	-396.7	2.2
			CHANNELS 3  Xrotation Yrotation Zrotation
			JOINT right_ankle
			{
				OFFSET	11.7	-411.3	35.4
				CHANNELS 3  Xrotation Yrotation Zrotation
				JOINT right_toes
				{
					OFFSET	0	-60	-88.6
					CHANNELS 3  Xrotation Yrotation Zrotation
					JOINT right_foot_ee
					{
						OFFSET	22.5	-16.5	-42.2
						CHANNELS 3  Xrotation Yrotation Zrotation
						End Site
						{
							OFFSET	1	0	0
						}
					}
				}
			}
		}
	}
}
MOTION
Frames: 15
Frame Time: 0.02
342.374 635.214 -1530.19 -160.868 -64.6691 -158.804 2.4262 -0.304195 -1.6295 2.42765 -0.199903 -1.64555 2.43321 0.0801916 -1.65571 2.42943 -0.182266 -1.6476 -15.6101 4.9707 1.21051 -15.6778 8.81399 2.8424 -0.0 0.0 -0.0 4.99829 20.7987 9.69879 -4.06951 -24.7883 69.9382 1.46497 -35.9662 0.475542 85.4497 -4.48045 -8.88665 1.3754 -11.5636 4.36295 -0.0 0.0 -0.0 5.61366 18.1614 -9.91652 -8.70133 18.9548 -70.3013 0.209078 5.91325 -0.0107986 63.2832 2.07478 7.40232 4.44533 -31.142 -38.8098 0.0 0.0 0.0 14.853 28.2915 -1.69641 -8.63328 0.258025 1.29857 27.6819 -21.0289 -4.09216 23.3702 -0.0 -0.0 -0.0 0.0 -0.0 16.5599 -3.33651 3.20517 -19.6228 -0.299935 -2.98165 31.7461 -24.9452 4.30487 -1.65611 0.0 0.0 0.0 0.0 0.0 
348.528 636.026 -1533.21 -161.554 -64.6981 -159.08 2.43953 -0.353424 -1.65081 2.44101 -0.247677 -1.66995 2.44805 0.0367537 -1.68781 2.44415 -0.230228 -1.67244 -15.2327 5.35912 0.323769 -15.3226 10.064 2.11014 -0.0 0.0 -0.0 5.16379 21.6068 9.91526 -4.50003 -24.2813 70.167 1.48587 -36.3528 0.487873 85.4973 -4.48616 -8.8888 0.770104 -8.7835 1.46993 -0.0 0.0 -0.0 5.17881 15.3958 -9.19664 -9.44706 18.6993 -70.3687 0.19656 5.5615 -0.00954722 62.6673 2.01706 7.34841 4.35717 -30.98 -38.1713 0.0 0.0 0.0 13.8893 23.8727 -1.00004 -9.07527 0.265938 1.36593 28.4295 -21.5577 -4.2022 22.5807 -0.0 -0.0 -0.0 0.0 -0.0 16.3274 -5.65581 3.30916 -20.783 -0.285509 -3.15907 32.063 -27.2043 4.40322 -3.27481 0.0 0.0 0.0 0.0 0.0 
350.181 633.323 -1532.04 -161.148 -64.9869 -158.445 2.83922 -0.377577 -1.70534 2.8408 -0.268313 -1.7259 2.84851 0.0136059 -1.74657 2.84435 -0.262362 -1.72682 -14.5412 4.7773 -0.016507 -14.6089 9.13603 1.53493 -0.0 0.0 -0.0 5.32298 22.3213 10.1174 -4.60611 -23.1234 70.2296 1.48398 -36.3181 0.486759 85.1541 -4.44498 -8.87321 -0.100162 -6.18784 -3.30146 -0.0 0.0 -0.0 5.66379 13.3513 -10.374 -7.49668 18.7556 -73.0273 0.193924 5.48737 -0.00929335 62.4242 1.99444 7.32696 3.81053 -30.5984 -34.3567 0.0 0.0 0.0 13.1041 18.8745 0.00425183 -5.72966 0.193143 0.857757 27.4101 -22.4409 -4.11264 19.9062 -0.0 -0.0 -0.0 0.0 -0.0 16.4417 -6.15984 2.99845 -20.4226 -0.290375 -3.10399 28.9995 -28.2102 4.0742 -3.48544 0.0 0.0 0.0 0.0 0.0 
351.652 636.447 -1531.34 -159.488 -65.3982 -157.38 3.13887 -0.382012 -1.69722 3.14043 -0.273255 -1.71808 3.14812 -0.00163639 -1.73967 3.14401 -0.276322 -1.71759 -14.0035 4.09297 -0.143812 -14.0502 7.89551 1.15281 -0.0 0.0 -0.0 5.44871 22.8232 10.2746 -4.17972 -21.1608 70.0932 1.50886 -36.7737 0.501573 84.5204 -4.36919 -8.84378 -0.955604 -4.02696 -8.16483 -0.0 0.0 -0.0 4.45984 13.6515 -7.79875 -6.88583 17.2015 -72.068 0.195214 5.52366 -0.00941718 62.2662 1.97978 7.31296 3.68085 -30.5088 -33.48 0.0 0.0 0.0 12.5617 14.0484 1.22439 -3.39266 0.124744 0.505649 26.2694 -22.2717 -3.96418 17.6996 -0.0 -0.0 -0.0 0.0 -0.0 15.9257 -5.43256 2.70383 -20.1765 -0.293499 -3.06636 26.7847 -28.3184 3.80663 -3.58357 0.0 0.0 0.0 0.0 0.0 
356.828 633.737 -1526.97 -158.034 -66.5629 -155.64 3.26664 -0.20279 -1.66935 3.26819 -0.0961693 -1.67886 3.27042 0.163657 -1.67363 3.26652 -0.102678 -1.67848 -14.2099 2.88697 1.84892 -14.2149 4.38742 2.66958 -0.0 0.0 -0.0 5.20639 20.8723 10.0041 -2.80549 -19.7517 70.8052 1.5527 -37.5636 0.528061 84.3352 -4.3471 -8.83502 -2.05807 -2.39608 -15.0031 -0.0 0.0 -0.0 3.96958 10.7522 -6.98563 -6.43284 16.8042 -72.0733 0.194455 5.50231 -0.00934429 61.8809 1.94421 7.27868 3.28485 -29.8681 -30.8125 0.0 0.0 0.0 11.3048 8.76905 0.262613 -1.82542 0.0708452 0.271169 24.7438 -21.4484 -3.7406 15.1113 -0.0 -0.0 -0.0 0.0 -0.0 16.9847 -4.9444 1.96192 -19.9743 -0.295945 -3.03542 23.2349 -27.9966 3.34856 -3.69386 0.0 0.0 0.0 0.0 0.0 
349.136 632.852 -1525.8 -155.031 -67.6673 -152.113 3.26025 -0.295794 -1.61368 3.26168 -0.192526 -1.62922 3.26663 0.060869 -1.63943 3.26293 -0.198777 -1.62847 -14.317 1.96288 3.45153 -14.2854 1.65665 3.89694 -0.0 0.0 -0.0 5.11323 19.5869 9.90584 -2.13552 -19.3765 72.3177 1.58458 -38.1275 0.547619 84.6195 -4.38102 -8.84844 -2.90914 -1.16672 -20.4132 -0.0 0.0 -0.0 3.76262 7.46604 -6.79417 -6.38294 16.4384 -72.8162 0.191561 5.42091 -0.00906888 61.5834 1.91691 7.25204 2.94638 -29.3858 -28.5827 0.0 0.0 0.0 11.1055 3.92689 0.520499 -0.712151 0.0286681 0.105527 23.7668 -21.4545 -3.61442 13.0487 -0.0 -0.0 -0.0 0.0 -0.0 17.7637 -4.08726 1.25613 -19.8343 -0.297574 -3.01401 20.739 -27.5712 3.01222 -3.96819 0.0 0.0 0.0 0.0 0.0 
352.693 632.301 -1523.15 -154.068 -68.8667 -151.012 3.41428 -0.425798 -1.69284 3.41582 -0.317232 -1.71649 3.42471 -0.0537678 -1.74472 3.42061 -0.328598 -1.71435 -12.3305 -0.148749 3.9881 -12.2896 -2.83017 3.78404 -0.0 0.0 -0.0 5.18298 16.6661 10.0878 -1.67689 -18.0412 71.9843 1.56536 -37.7884 0.535795 85.4695 -4.48283 -8.88755 -3.67853 1.83681 -24.4275 -0.0 0.0 -0.0 3.48143 5.36206 -6.36879 -6.53233 16.0716 -72.6942 0.188086 5.32316 -0.00874349 61.6044 1.91882 7.25392 2.59343 -29.8729 -26.4704 0.0 0.0 0.0 10.922 0.0963061 0.780522 -4.04242 0.145203 0.603268 25.879 -21.7331 -3.89508 11.8755 -0.0 -0.0 -0.0 0.0 -0.0 18.3987 -2.68694 0.614033 -19.2677 -0.303633 -2.92729 18.4803 -27.2456 2.70295 -4.6409 0.0 0.0 0.0 0.0 0.0 
355.211 631.285 -1519.98 -151.626 -69.1256 -148.298 3.50006 -0.514026 -1.74577 3.50167 -0.401914 -1.77493 3.51345 -0.131484 -1.81509 3.5091 -0.416449 -1.77157 -11.9805 -1.67598 4.13891 -11.9486 -5.84441 3.51178 -0.0 0.0 -0.0 5.50723 13.5248 10.6837 -1.99889 -17.5549 72.5929 1.55216 -37.5538 0.527729 85.4327 -4.47841 -8.88589 -4.27129 4.00727 -27.5936 -0.0 0.0 -0.0 3.27605 3.88184 -6.05934 -6.65728 15.863 -71.7454 0.191277 5.41292 -0.00904196 61.6112 1.91945 7.25453 2.34893 -29.894 -24.9906 0.0 0.0 0.0 10.4378 -2.57235 -0.0850645 -1.46779 0.0576472 0.21787 27.3582 -21.9342 -4.08663 11.0283 -0.0 -0.0 -0.0 0.0 -0.0 18.8242 -1.72934 0.14539 -18.8921 -0.307177 -2.86976 16.8932 -26.9797 2.48173 -5.11475 0.0 0.0 0.0 0.0 0.0 
355.047 630.889 -1519.66 -149.277 -70.1057 -145.35 3.57847 -0.584048 -1.94584 3.58046 -0.45907 -1.97905 3.59544 -0.160353 -2.02524 3.59004 -0.478126 -1.97453 -12.1119 -2.22164 4.7795 -12.0739 -7.28296 3.96739 -0.0 0.0 -0.0 5.67507 11.069 11.0141 -2.74063 -17.3391 73.0722 1.52505 -37.0673 0.511298 85.166 -4.44641 -8.87376 -5.01656 7.07748 -31.3475 -0.0 0.0 -0.0 3.24961 2.03567 -6.13237 -6.74618 14.9146 -71.7622 0.193037 5.46242 -0.00920882 61.6032 1.91872 7.25382 1.86066 -29.0145 -21.8967 0.0 0.0 0.0 10.1389 -4.49785 -0.568498 0.591247 -0.0247974 -0.0873416 26.6526 -21.6559 -3.98902 10.6116 -0.0 -0.0 -0.0 0.0 -0.0 18.8838 -1.14691 -0.871324 -18.6477 -0.30928 -2.83232 14.9322 -26.6351 2.20478 -5.41277 0.0 0.0 0.0 0.0 0.0 
354.291 631.75 -1517.81 -150.018 -69.5226 -145.392 3.65391 -0.208747 -2.18908 3.65657 -0.0690609 -2.19793 3.65792 0.255717 -2.1841 3.65127 -0.0923439 -2.19707 -11.8037 -2.37382 4.19982 -11.7782 -7.21539 3.3863 -0.0 0.0 -0.0 6.07807 8.51906 11.7682 -2.75175 -17.2504 72.9416 1.38946 -34.5376 0.431957 85.0069 -4.42734 -8.86645 -5.63907 10.5055 -33.7932 -0.0 0.0 -0.0 3.02177 -0.279766 -5.84206 -6.81693 14.368 -71.7578 0.222578 6.29208 -0.0122338 60.913 1.85589 7.19151 1.46634 -29.549 -19.7275 0.0 0.0 0.0 11.271 -4.81793 -1.25548 -0.983731 0.039254 0.145861 26.3217 -19.772 -3.88195 11.0878 -0.0 -0.0 -0.0 0.0 -0.0 18.443 -0.794134 -2.27827 -18.4793 -0.310637 -2.80652 15.0045 -24.9234 2.19323 -6.3282 0.0 0.0 0.0 0.0 0.0 
353.351 632.613 -1515.9 -149.086 -69.7538 -143.887 3.67738 -0.0548784 -2.27443 3.68025 0.0899226 -2.27331 3.67523 0.42353 -2.23534 3.66826 0.0652798 -2.27415 -11.6732 -2.46156 3.86497 -11.6543 -7.17089 3.04738 -0.0 0.0 -0.0 6.4898 6.70676 12.5505 -2.27093 -17.3262 73.0951 1.30426 -32.8646 0.384678 84.893 -4.41372 -8.86119 -6.10048 12.9872 -35.5139 -0.0 0.0 -0.0 2.71477 -1.83273 -5.35971 -6.84841 13.9953 -71.6042 0.243524 6.87877 -0.0146359 60.4297 1.81233 7.14742 1.1908 -29.8052 -18.2209 0.0 0.0 0.0 12.0495 -4.933 -1.84088 -2.08533 0.0802276 0.309953 26.0902 -18.39 -3.80932 11.4212 -0.0 -0.0 -0.0 0.0 -0.0 18.1696 -0.547585 -3.2658 -18.3496 -0.311629 -2.78665 15.1471 -23.8464 2.2004 -6.95485 0.0 0.0 0.0 0.0 0.0 
353.882 632.222 -1517.7 -146.559 -70.7591 -140.959 3.69527 -0.0635516 -2.31732 3.69825 0.083994 -2.31667 3.69334 0.42333 -2.27923 3.68609 0.0581561 -2.31746 -11.5422 -2.60997 3.89734 -11.5238 -7.47885 3.0466 -0.0 0.0 -0.0 6.77061 5.43224 13.0972 -1.00571 -17.5994 72.9789 1.24971 -31.759 0.355518 84.9219 -4.41717 -8.86252 -6.94734 17.4234 -38.413 -0.0 0.0 -0.0 2.61961 -5.401 -5.4209 -6.95518 14.794 -71.6735 0.258329 7.29258 -0.0164622 58.9465 1.68104 7.0099 0.86682 -29.0892 -16.1909 0.0 0.0 0.0 12.4869 -5.28053 -2.44113 -2.35697 0.0898446 0.350532 26.3762 -17.21 -3.80885 11.542 -0.0 -0.0 -0.0 0.0 -0.0 18.0593 -0.319828 -3.57902 -18.2612 -0.31228 -2.7731 19.5176 -22.6365 2.77081 -8.77983 0.0 0.0 0.0 0.0 0.0 
355.768 632.249 -1514.59 -144.489 -71.3367 -138.767 3.88758 -0.118967 -2.3291 3.89059 0.0294403 -2.33195 3.88772 0.363755 -2.30361 3.88031 -0.00451921 -2.33213 -11.4487 -2.71053 3.90526 -11.4309 -7.6785 3.03326 -0.0 0.0 -0.0 7.00972 4.41985 13.5687 0.115476 -17.8606 72.9792 1.21757 -31.095 0.338761 84.9485 -4.42036 -8.86376 -7.57543 20.5502 -40.3747 -0.0 0.0 -0.0 2.53146 -7.89445 -5.42095 -7.04386 15.3522 -71.6799 0.268696 7.58192 -0.0178042 57.8894 1.58967 6.90985 0.636558 -28.6012 -14.7487 0.0 0.0 0.0 12.5978 -5.43255 -2.75163 -2.54854 0.0965117 0.379178 26.5978 -16.3645 -3.81146 11.6266 -0.0 -0.0 -0.0 0.0 -0.0 18.0177 -0.0610474 -3.84552 -18.2043 -0.312689 -2.76437 22.6292 -21.7497 3.15648 -10.0421 0.0 0.0 0.0 0.0 0.0 
361.607 625.517 -1516.29 -140.859 -71.8504 -135.387 4.08933 -0.29411 -2.2923 4.09224 -0.147689 -2.30636 4.09642 0.176244 -2.30435 4.08906 -0.189797 -2.30327 -9.73599 -2.74504 3.78657 -9.70834 -7.73623 3.03149 -0.0 0.0 -0.0 6.84652 2.29378 13.2824 0.830815 -18.058 72.858 1.14953 -29.6582 0.304354 85.3461 -4.46801 -8.88196 -7.9084 23.4957 -39.8077 -0.0 0.0 -0.0 2.11784 -11.0932 -4.90868 -7.57329 16.0911 -71.3143 0.290555 8.19064 -0.0208034 55.0636 1.35469 6.63437 0.48942 -28.0593 -13.751 0.0 0.0 0.0 13.1569 -3.92825 -2.08406 -1.85172 0.0718025 0.275091 27.0159 -15.6772 -3.84235 10.8659 -0.0 -0.0 -0.0 0.0 -0.0 17.8873 1.02828 -4.10142 -19.1666 -0.304624 -2.9118 28.1105 -25.0331 3.88666 -10.1397 0.0 0.0 0.0 0.0 0.0 
364.765 624.164 -1512.86 -136.69 -72.847 -131.585 4.23143 -0.413474 -2.23863 4.23418 -0.270224 -2.26039 4.24306 0.0425578 -2.27608 4.23597 -0.317348 -2.25426 -8.8001 -2.74164 3.66087 -8.76807 -7.67765 2.97683 -0.0 0.0 -0.0 5.76101 0.652243 11.1613 1.91898 -20.1603 74.9086 1.24642 -31.6916 0.353792 85.4599 -4.48168 -8.88712 -8.17476 25.6301 -39.4166 -0.0 0.0 -0.0 1.70926 -14.709 -4.48205 -7.96129 16.7146 -71.1673 0.355028 9.97484 -0.0309825 52.0963 1.12294 6.33312 0.361882 -28.0237 -13.023 0.0 0.0 0.0 13.1714 -2.63169 -1.77958 1.29525 -0.0554996 -0.191006 27.5734 -14.4474 -3.87539 9.66568 -0.0 -0.0 -0.0 0.0 -0.0 17.6759 -1.22809 -4.12264 -20.0934 -0.294517 -3.05365 33.1673 -27.2737 4.52979 -9.20995 0.0 0.0 0.0 0.0 0.0 
